<svg xmlns="http://www.w3.org/2000/svg" baseProfile="tiny" width="108" height="16"><linearGradient id="A" gradientUnits="userSpaceOnUse" x1="8" y1="8" x2="8" y2="0"><stop offset="0" stop-color="#fa5e5a"/><stop offset="1" stop-color="#f80"/></linearGradient><path fill="url(#A)" d="M8 0a8 8 0 0 0-8 8h16a8 8 0 0 0-8-8z"/><path d="M.085 9c.072.574.185 1.137.372 1.667h15.086c.188-.53.3-1.093.372-1.667H.085zM8 16c1.837 0 3.523-.625 4.874-1.666H3.126C4.476 15.375 6.163 16 8 16zm-5.96-2.667h11.92c.446-.498.806-1.067 1.116-1.666H.922c.3.6.67 1.168 1.117 1.666zm83.812-9.576h1.127v8.612h-1.307l-4.378-6.957h-.024v6.957h-1.127V3.757h1.38l4.306 6.956h.024V3.757zm6.708 8.84c-3.215 0-4.197-2.674-4.197-4.533s.982-4.533 4.197-4.533 4.197 2.674 4.197 4.533-.983 4.533-4.197 4.533zm0-8.035c-1.87 0-2.998 1.476-2.998 3.502s1.127 3.5 2.998 3.5 2.998-1.475 2.998-3.5S94.432 4.56 92.56 4.56zm7.97 7.81h-1.225l-2.242-8.612h1.26l1.607 7.004h.023l1.932-7.004h1.27l1.932 7.004h.023l1.607-7.004H108l-2.266 8.612h-1.225l-1.967-7.136h-.023l-2 7.136z" fill="#cf5278"/><path d="M24.3 12.306h-1.224l-2.243-8.6h1.26L23.7 10.7h.024l1.93-7.004h1.27l1.93 7.004h.024l1.607-7.004h1.283l-2.267 8.6h-1.22L26.305 5.17h-.024l-2 7.136zm15.048 0H33V3.694h6.273v1.03h-5.1v2.64h4.713v1.03h-4.713v2.88h5.193v1.032zM42.23 9.8l-.9 2.507h-1.2l3.238-8.6h1.32l3.118 8.6h-1.27L45.684 9.8H42.23zm3.035-1.03l-1.27-3.8h-.024l-1.38 3.8h2.674zm1.43-5.076h6.992v1.03h-2.915v7.58H49.6v-7.58h-2.915v-1.03zm13.748 0h1.164v8.6h-1.164V8.288h-4.497v4.018h-1.164V3.694h1.164v3.563h4.497V3.694zm9.467 8.612h-6.356V3.694h6.272v1.03h-5.1v2.64h4.715v1.03h-4.715v2.88h5.193v1.032zm2.837 0h-1.164V3.694h3.982c1.414 0 2.83.492 2.83 2.314 0 1.27-.648 1.74-1.2 2.063.492.204.982.42 1.03 1.62l.073 1.56c.012.48.072.66.432.864v.2h-1.428c-.168-.527-.203-1.835-.203-2.16 0-.707-.145-1.535-1.535-1.535h-2.818v3.695zm0-4.7h2.697c.852 0 1.752-.216 1.752-1.487 0-1.33-.97-1.44-1.547-1.44h-2.902v2.926z" fill="#b2b2b2"/></svg>